<mxfile host="app.diagrams.net" agent="Mozilla/5.0 (Windows NT 10.0; Win64; x64) AppleWebKit/537.36 (KHTML, like Gecko) Chrome/131.0.0.0 Safari/537.36 Edg/131.0.0.0" version="26.0.1">
  <diagram name="第 1 页" id="TNgkW0LLQJKGKH_O6mHP">
    <mxGraphModel dx="1621" dy="1214" grid="1" gridSize="10" guides="1" tooltips="1" connect="1" arrows="1" fold="1" page="0" pageScale="1" pageWidth="827" pageHeight="1169" math="0" shadow="0">
      <root>
        <mxCell id="0" />
        <mxCell id="1" parent="0" />
        <mxCell id="WaT7aZ4GV9jZIhNz12hq-7" value="" style="whiteSpace=wrap;html=1;fillColor=#FFCCE6;dashed=1;strokeColor=#36393d;" vertex="1" parent="1">
          <mxGeometry x="429.75" y="632" width="620.25" height="188" as="geometry" />
        </mxCell>
        <mxCell id="sXXriGGngjyK85Kr_pVM-4" value="" style="whiteSpace=wrap;html=1;fillColor=#FFCCE6;dashed=1;strokeColor=#36393d;" vertex="1" parent="1">
          <mxGeometry x="-60" y="632" width="490" height="188" as="geometry" />
        </mxCell>
        <mxCell id="sXXriGGngjyK85Kr_pVM-2" value="" style="whiteSpace=wrap;html=1;fillColor=#FFCCCC;dashed=1;strokeColor=#36393d;gradientColor=none;" vertex="1" parent="1">
          <mxGeometry x="230" y="-40" width="390" height="151.5" as="geometry" />
        </mxCell>
        <mxCell id="OKxPrB0xDgkwKKIO_z5v-99" value="" style="whiteSpace=wrap;html=1;fillColor=#99CCFF;dashed=1;strokeColor=#b85450;" parent="1" vertex="1">
          <mxGeometry x="-60.5" y="-40" width="291" height="150" as="geometry" />
        </mxCell>
        <mxCell id="OKxPrB0xDgkwKKIO_z5v-30" value="" style="whiteSpace=wrap;html=1;fillColor=#ffe6cc;dashed=1;strokeColor=#d79b00;" parent="1" vertex="1">
          <mxGeometry x="620" y="-40" width="430" height="150" as="geometry" />
        </mxCell>
        <mxCell id="OKxPrB0xDgkwKKIO_z5v-31" value="" style="whiteSpace=wrap;html=1;fillColor=#dae8fc;dashed=1;strokeColor=#6c8ebf;" parent="1" vertex="1">
          <mxGeometry x="-60" y="110" width="1110" height="250" as="geometry" />
        </mxCell>
        <mxCell id="OKxPrB0xDgkwKKIO_z5v-32" value="" style="whiteSpace=wrap;html=1;fillColor=#e1d5e7;dashed=1;strokeColor=#9673a6;" parent="1" vertex="1">
          <mxGeometry x="-60" y="360" width="1110" height="130" as="geometry" />
        </mxCell>
        <mxCell id="OKxPrB0xDgkwKKIO_z5v-33" value="" style="whiteSpace=wrap;html=1;fillColor=#d5e8d4;dashed=1;strokeColor=#82b366;" parent="1" vertex="1">
          <mxGeometry x="-60" y="490" width="1110" height="142" as="geometry" />
        </mxCell>
        <mxCell id="OKxPrB0xDgkwKKIO_z5v-1" value="&lt;b&gt;AR1-public&lt;/b&gt;&lt;div&gt;&lt;b&gt;192.168.204.2&lt;/b&gt;&lt;/div&gt;" style="shape=mxgraph.cisco.routers.router;sketch=0;html=1;pointerEvents=1;dashed=0;fillColor=#036897;strokeColor=#ffffff;strokeWidth=2;verticalLabelPosition=bottom;verticalAlign=top;align=center;outlineConnect=0;" parent="1" vertex="1">
          <mxGeometry x="636.5" y="17" width="78" height="53" as="geometry" />
        </mxCell>
        <mxCell id="WaT7aZ4GV9jZIhNz12hq-2" style="rounded=0;orthogonalLoop=1;jettySize=auto;html=1;exitX=0.16;exitY=0.55;exitDx=0;exitDy=0;exitPerimeter=0;endArrow=none;endFill=0;" edge="1" parent="1" source="OKxPrB0xDgkwKKIO_z5v-2" target="WaT7aZ4GV9jZIhNz12hq-1">
          <mxGeometry relative="1" as="geometry" />
        </mxCell>
        <mxCell id="OKxPrB0xDgkwKKIO_z5v-2" value="Internet" style="ellipse;shape=cloud;whiteSpace=wrap;html=1;" parent="1" vertex="1">
          <mxGeometry x="918.5" width="120" height="80" as="geometry" />
        </mxCell>
        <mxCell id="OKxPrB0xDgkwKKIO_z5v-3" style="rounded=0;orthogonalLoop=1;jettySize=auto;html=1;exitX=1;exitY=0.5;exitDx=0;exitDy=0;exitPerimeter=0;endArrow=none;endFill=0;" parent="1" source="OKxPrB0xDgkwKKIO_z5v-1" target="WaT7aZ4GV9jZIhNz12hq-1" edge="1">
          <mxGeometry relative="1" as="geometry" />
        </mxCell>
        <mxCell id="OKxPrB0xDgkwKKIO_z5v-4" value="" style="shape=mxgraph.cisco.security.firewall;sketch=0;html=1;pointerEvents=1;dashed=0;fillColor=#036897;strokeColor=#ffffff;strokeWidth=2;verticalLabelPosition=bottom;verticalAlign=top;align=center;outlineConnect=0;" parent="1" vertex="1">
          <mxGeometry x="386.5" y="10" width="29" height="67" as="geometry" />
        </mxCell>
        <mxCell id="OKxPrB0xDgkwKKIO_z5v-5" style="rounded=0;orthogonalLoop=1;jettySize=auto;html=1;exitX=1;exitY=0.5;exitDx=0;exitDy=0;exitPerimeter=0;entryX=0;entryY=0.5;entryDx=0;entryDy=0;entryPerimeter=0;endArrow=none;endFill=0;" parent="1" source="OKxPrB0xDgkwKKIO_z5v-4" target="OKxPrB0xDgkwKKIO_z5v-1" edge="1">
          <mxGeometry relative="1" as="geometry" />
        </mxCell>
        <mxCell id="OKxPrB0xDgkwKKIO_z5v-6" value="&lt;b&gt;10.64.1.100&lt;/b&gt;" style="shape=mxgraph.cisco.servers.fileserver;sketch=0;html=1;pointerEvents=1;dashed=0;fillColor=#036897;strokeColor=#ffffff;strokeWidth=2;verticalLabelPosition=bottom;verticalAlign=top;align=center;outlineConnect=0;" parent="1" vertex="1">
          <mxGeometry x="-28.5" y="12.5" width="43" height="62" as="geometry" />
        </mxCell>
        <mxCell id="OKxPrB0xDgkwKKIO_z5v-9" style="rounded=0;orthogonalLoop=1;jettySize=auto;html=1;entryX=0;entryY=0.5;entryDx=0;entryDy=0;entryPerimeter=0;exitX=1;exitY=0.5;exitDx=0;exitDy=0;exitPerimeter=0;endArrow=none;endFill=0;" parent="1" source="OKxPrB0xDgkwKKIO_z5v-15" target="OKxPrB0xDgkwKKIO_z5v-4" edge="1">
          <mxGeometry relative="1" as="geometry">
            <mxPoint x="285.5" y="63.5" as="sourcePoint" />
          </mxGeometry>
        </mxCell>
        <mxCell id="OKxPrB0xDgkwKKIO_z5v-11" value="&lt;b&gt;SW1&lt;/b&gt;" style="shape=mxgraph.cisco.switches.atm_switch;sketch=0;html=1;pointerEvents=1;dashed=0;fillColor=#036897;strokeColor=#ffffff;strokeWidth=2;verticalLabelPosition=bottom;verticalAlign=top;align=center;outlineConnect=0;" parent="1" vertex="1">
          <mxGeometry x="197" y="390" width="54" height="56" as="geometry" />
        </mxCell>
        <mxCell id="OKxPrB0xDgkwKKIO_z5v-12" value="&lt;b&gt;SW2&lt;/b&gt;" style="shape=mxgraph.cisco.switches.atm_switch;sketch=0;html=1;pointerEvents=1;dashed=0;fillColor=#036897;strokeColor=#ffffff;strokeWidth=2;verticalLabelPosition=bottom;verticalAlign=top;align=center;outlineConnect=0;" parent="1" vertex="1">
          <mxGeometry x="570" y="390" width="54" height="56" as="geometry" />
        </mxCell>
        <mxCell id="OKxPrB0xDgkwKKIO_z5v-16" style="rounded=0;orthogonalLoop=1;jettySize=auto;html=1;exitX=0.5;exitY=0;exitDx=0;exitDy=0;exitPerimeter=0;endArrow=none;endFill=0;" parent="1" source="OKxPrB0xDgkwKKIO_z5v-13" target="OKxPrB0xDgkwKKIO_z5v-4" edge="1">
          <mxGeometry relative="1" as="geometry" />
        </mxCell>
        <mxCell id="OKxPrB0xDgkwKKIO_z5v-13" value="&lt;b&gt;AR3-core1&lt;/b&gt;" style="shape=mxgraph.cisco.routers.router;sketch=0;html=1;pointerEvents=1;dashed=0;fillColor=#036897;strokeColor=#ffffff;strokeWidth=2;verticalLabelPosition=bottom;verticalAlign=top;align=center;outlineConnect=0;" parent="1" vertex="1">
          <mxGeometry x="185" y="198.5" width="78" height="53" as="geometry" />
        </mxCell>
        <mxCell id="OKxPrB0xDgkwKKIO_z5v-17" style="rounded=0;orthogonalLoop=1;jettySize=auto;html=1;exitX=0.5;exitY=0;exitDx=0;exitDy=0;exitPerimeter=0;endArrow=none;endFill=0;" parent="1" source="OKxPrB0xDgkwKKIO_z5v-14" target="OKxPrB0xDgkwKKIO_z5v-4" edge="1">
          <mxGeometry relative="1" as="geometry">
            <mxPoint x="437" y="120" as="targetPoint" />
          </mxGeometry>
        </mxCell>
        <mxCell id="OKxPrB0xDgkwKKIO_z5v-14" value="&lt;b style=&quot;&quot;&gt;AR4-core2&lt;/b&gt;" style="shape=mxgraph.cisco.routers.router;sketch=0;html=1;pointerEvents=1;dashed=0;fillColor=#036897;strokeColor=#ffffff;strokeWidth=2;verticalLabelPosition=bottom;verticalAlign=top;align=center;outlineConnect=0;" parent="1" vertex="1">
          <mxGeometry x="558" y="195" width="78" height="53" as="geometry" />
        </mxCell>
        <mxCell id="OKxPrB0xDgkwKKIO_z5v-15" value="&lt;b&gt;AR2-dmz&lt;/b&gt;&lt;div&gt;&lt;b&gt;10.129.0.2/16&lt;/b&gt;&lt;/div&gt;" style="shape=mxgraph.cisco.routers.router;sketch=0;html=1;pointerEvents=1;dashed=0;fillColor=#036897;strokeColor=#ffffff;strokeWidth=2;verticalLabelPosition=bottom;verticalAlign=top;align=center;outlineConnect=0;" parent="1" vertex="1">
          <mxGeometry x="117.5" y="17" width="78" height="53" as="geometry" />
        </mxCell>
        <mxCell id="OKxPrB0xDgkwKKIO_z5v-20" style="rounded=0;orthogonalLoop=1;jettySize=auto;html=1;exitX=0.5;exitY=0;exitDx=0;exitDy=0;exitPerimeter=0;entryX=0.5;entryY=1;entryDx=0;entryDy=0;entryPerimeter=0;endArrow=none;endFill=0;" parent="1" source="OKxPrB0xDgkwKKIO_z5v-11" target="OKxPrB0xDgkwKKIO_z5v-13" edge="1">
          <mxGeometry relative="1" as="geometry" />
        </mxCell>
        <mxCell id="OKxPrB0xDgkwKKIO_z5v-21" style="rounded=0;orthogonalLoop=1;jettySize=auto;html=1;exitX=0.5;exitY=0;exitDx=0;exitDy=0;exitPerimeter=0;entryX=0.5;entryY=1;entryDx=0;entryDy=0;entryPerimeter=0;endArrow=none;endFill=0;" parent="1" source="OKxPrB0xDgkwKKIO_z5v-12" target="OKxPrB0xDgkwKKIO_z5v-14" edge="1">
          <mxGeometry relative="1" as="geometry" />
        </mxCell>
        <mxCell id="OKxPrB0xDgkwKKIO_z5v-23" style="rounded=0;orthogonalLoop=1;jettySize=auto;html=1;exitX=0.5;exitY=0;exitDx=0;exitDy=0;exitPerimeter=0;entryX=0.88;entryY=0.9;entryDx=0;entryDy=0;entryPerimeter=0;endArrow=none;endFill=0;" parent="1" source="OKxPrB0xDgkwKKIO_z5v-12" target="OKxPrB0xDgkwKKIO_z5v-13" edge="1">
          <mxGeometry relative="1" as="geometry" />
        </mxCell>
        <mxCell id="OKxPrB0xDgkwKKIO_z5v-24" style="rounded=0;orthogonalLoop=1;jettySize=auto;html=1;entryX=0.12;entryY=0.9;entryDx=0;entryDy=0;entryPerimeter=0;endArrow=none;endFill=0;exitX=0.5;exitY=0;exitDx=0;exitDy=0;exitPerimeter=0;" parent="1" source="OKxPrB0xDgkwKKIO_z5v-11" target="OKxPrB0xDgkwKKIO_z5v-14" edge="1">
          <mxGeometry relative="1" as="geometry" />
        </mxCell>
        <mxCell id="OKxPrB0xDgkwKKIO_z5v-45" style="rounded=0;orthogonalLoop=1;jettySize=auto;html=1;exitX=0.5;exitY=0;exitDx=0;exitDy=0;exitPerimeter=0;endArrow=none;endFill=0;" parent="1" source="OKxPrB0xDgkwKKIO_z5v-26" target="OKxPrB0xDgkwKKIO_z5v-11" edge="1">
          <mxGeometry relative="1" as="geometry" />
        </mxCell>
        <mxCell id="OKxPrB0xDgkwKKIO_z5v-48" style="rounded=0;orthogonalLoop=1;jettySize=auto;html=1;exitX=0.5;exitY=0;exitDx=0;exitDy=0;exitPerimeter=0;endArrow=none;endFill=0;" parent="1" source="OKxPrB0xDgkwKKIO_z5v-26" target="OKxPrB0xDgkwKKIO_z5v-12" edge="1">
          <mxGeometry relative="1" as="geometry" />
        </mxCell>
        <mxCell id="OKxPrB0xDgkwKKIO_z5v-26" value="&lt;b&gt;SW3&lt;/b&gt;" style="shape=mxgraph.cisco.switches.atm_switch;sketch=0;html=1;pointerEvents=1;dashed=0;fillColor=#036897;strokeColor=#ffffff;strokeWidth=2;verticalLabelPosition=bottom;verticalAlign=top;align=center;outlineConnect=0;" parent="1" vertex="1">
          <mxGeometry x="197" y="550" width="54" height="56" as="geometry" />
        </mxCell>
        <mxCell id="OKxPrB0xDgkwKKIO_z5v-49" style="rounded=0;orthogonalLoop=1;jettySize=auto;html=1;exitX=0.5;exitY=0;exitDx=0;exitDy=0;exitPerimeter=0;endArrow=none;endFill=0;" parent="1" source="OKxPrB0xDgkwKKIO_z5v-27" target="OKxPrB0xDgkwKKIO_z5v-11" edge="1">
          <mxGeometry relative="1" as="geometry" />
        </mxCell>
        <mxCell id="OKxPrB0xDgkwKKIO_z5v-50" style="rounded=0;orthogonalLoop=1;jettySize=auto;html=1;exitX=0.5;exitY=0;exitDx=0;exitDy=0;exitPerimeter=0;endArrow=none;endFill=0;" parent="1" source="OKxPrB0xDgkwKKIO_z5v-27" target="OKxPrB0xDgkwKKIO_z5v-12" edge="1">
          <mxGeometry relative="1" as="geometry" />
        </mxCell>
        <mxCell id="OKxPrB0xDgkwKKIO_z5v-27" value="&lt;b&gt;SW4&lt;/b&gt;" style="shape=mxgraph.cisco.switches.atm_switch;sketch=0;html=1;pointerEvents=1;dashed=0;fillColor=#036897;strokeColor=#ffffff;strokeWidth=2;verticalLabelPosition=bottom;verticalAlign=top;align=center;outlineConnect=0;" parent="1" vertex="1">
          <mxGeometry x="570" y="550" width="54" height="56" as="geometry" />
        </mxCell>
        <mxCell id="OKxPrB0xDgkwKKIO_z5v-43" style="rounded=0;orthogonalLoop=1;jettySize=auto;html=1;exitX=0.5;exitY=0;exitDx=0;exitDy=0;exitPerimeter=0;endArrow=none;endFill=0;" parent="1" source="OKxPrB0xDgkwKKIO_z5v-39" target="OKxPrB0xDgkwKKIO_z5v-26" edge="1">
          <mxGeometry relative="1" as="geometry" />
        </mxCell>
        <mxCell id="OKxPrB0xDgkwKKIO_z5v-39" value="&lt;div&gt;&lt;b&gt;PC3&lt;/b&gt;&lt;/div&gt;&lt;b&gt;行政&lt;/b&gt;&lt;div&gt;&lt;b&gt;VLAN 21&lt;/b&gt;&lt;/div&gt;" style="shape=mxgraph.cisco.computers_and_peripherals.workstation;sketch=0;html=1;pointerEvents=1;dashed=0;fillColor=#036897;strokeColor=#ffffff;strokeWidth=2;verticalLabelPosition=bottom;verticalAlign=top;align=center;outlineConnect=0;" parent="1" vertex="1">
          <mxGeometry x="103" y="700" width="83" height="62" as="geometry" />
        </mxCell>
        <mxCell id="OKxPrB0xDgkwKKIO_z5v-44" style="rounded=0;orthogonalLoop=1;jettySize=auto;html=1;exitX=0.5;exitY=0;exitDx=0;exitDy=0;exitPerimeter=0;endArrow=none;endFill=0;" parent="1" source="OKxPrB0xDgkwKKIO_z5v-40" target="OKxPrB0xDgkwKKIO_z5v-26" edge="1">
          <mxGeometry relative="1" as="geometry" />
        </mxCell>
        <mxCell id="OKxPrB0xDgkwKKIO_z5v-40" value="&lt;div&gt;&lt;b&gt;PC4&lt;/b&gt;&lt;/div&gt;&lt;div&gt;&lt;b&gt;教务&lt;/b&gt;&lt;/div&gt;&lt;div&gt;&lt;b&gt;VLAN 22&lt;/b&gt;&lt;/div&gt;" style="shape=mxgraph.cisco.computers_and_peripherals.workstation;sketch=0;html=1;pointerEvents=1;dashed=0;fillColor=#036897;strokeColor=#ffffff;strokeWidth=2;verticalLabelPosition=bottom;verticalAlign=top;align=center;outlineConnect=0;" parent="1" vertex="1">
          <mxGeometry x="180" y="700" width="83" height="62" as="geometry" />
        </mxCell>
        <mxCell id="OKxPrB0xDgkwKKIO_z5v-51" style="rounded=0;orthogonalLoop=1;jettySize=auto;html=1;exitX=0.5;exitY=0;exitDx=0;exitDy=0;exitPerimeter=0;endArrow=none;endFill=0;" parent="1" source="OKxPrB0xDgkwKKIO_z5v-41" target="OKxPrB0xDgkwKKIO_z5v-27" edge="1">
          <mxGeometry relative="1" as="geometry" />
        </mxCell>
        <mxCell id="OKxPrB0xDgkwKKIO_z5v-41" value="&lt;div&gt;&lt;b&gt;PC1&lt;/b&gt;&lt;/div&gt;&lt;b&gt;1号楼&lt;/b&gt;&lt;div&gt;&lt;b&gt;VLAN 11&lt;/b&gt;&lt;/div&gt;" style="shape=mxgraph.cisco.computers_and_peripherals.workstation;sketch=0;html=1;pointerEvents=1;dashed=0;fillColor=#036897;strokeColor=#ffffff;strokeWidth=2;verticalLabelPosition=bottom;verticalAlign=top;align=center;outlineConnect=0;" parent="1" vertex="1">
          <mxGeometry x="490.5" y="700" width="83" height="62" as="geometry" />
        </mxCell>
        <mxCell id="OKxPrB0xDgkwKKIO_z5v-52" style="rounded=0;orthogonalLoop=1;jettySize=auto;html=1;exitX=0.5;exitY=0;exitDx=0;exitDy=0;exitPerimeter=0;endArrow=none;endFill=0;" parent="1" source="OKxPrB0xDgkwKKIO_z5v-42" target="OKxPrB0xDgkwKKIO_z5v-27" edge="1">
          <mxGeometry relative="1" as="geometry" />
        </mxCell>
        <mxCell id="OKxPrB0xDgkwKKIO_z5v-42" value="&lt;div&gt;&lt;b&gt;PC2&lt;/b&gt;&lt;/div&gt;&lt;b&gt;2号楼&lt;/b&gt;&lt;div&gt;&lt;b&gt;VLAN 12&lt;/b&gt;&lt;/div&gt;" style="shape=mxgraph.cisco.computers_and_peripherals.workstation;sketch=0;html=1;pointerEvents=1;dashed=0;fillColor=#036897;strokeColor=#ffffff;strokeWidth=2;verticalLabelPosition=bottom;verticalAlign=top;align=center;outlineConnect=0;" parent="1" vertex="1">
          <mxGeometry x="624" y="700" width="83" height="60" as="geometry" />
        </mxCell>
        <mxCell id="OKxPrB0xDgkwKKIO_z5v-57" value="&lt;b&gt;&lt;font style=&quot;font-size: 17px;&quot;&gt;dmz&lt;/font&gt;&lt;/b&gt;" style="text;html=1;align=center;verticalAlign=middle;resizable=0;points=[];autosize=1;strokeColor=none;fillColor=none;" parent="1" vertex="1">
          <mxGeometry x="170" y="-40" width="60" height="30" as="geometry" />
        </mxCell>
        <mxCell id="OKxPrB0xDgkwKKIO_z5v-63" value="&lt;b&gt;&lt;font style=&quot;font-size: 17px;&quot;&gt;untrust&lt;/font&gt;&lt;/b&gt;" style="text;html=1;align=center;verticalAlign=middle;resizable=0;points=[];autosize=1;strokeColor=none;fillColor=none;" parent="1" vertex="1">
          <mxGeometry x="970" y="-40" width="80" height="30" as="geometry" />
        </mxCell>
        <mxCell id="OKxPrB0xDgkwKKIO_z5v-64" value="&lt;b&gt;&lt;font style=&quot;font-size: 14px;&quot;&gt;核心层&lt;/font&gt;&lt;/b&gt;" style="text;html=1;align=center;verticalAlign=middle;resizable=0;points=[];autosize=1;strokeColor=none;fillColor=none;" parent="1" vertex="1">
          <mxGeometry x="980" y="110" width="70" height="30" as="geometry" />
        </mxCell>
        <mxCell id="OKxPrB0xDgkwKKIO_z5v-66" value="&lt;b&gt;&lt;font style=&quot;font-size: 14px;&quot;&gt;汇聚层&lt;/font&gt;&lt;/b&gt;" style="text;html=1;align=center;verticalAlign=middle;resizable=0;points=[];autosize=1;strokeColor=none;fillColor=none;" parent="1" vertex="1">
          <mxGeometry x="980" y="360" width="70" height="30" as="geometry" />
        </mxCell>
        <mxCell id="OKxPrB0xDgkwKKIO_z5v-67" value="&lt;b&gt;&lt;font style=&quot;font-size: 14px;&quot;&gt;接入层&lt;/font&gt;&lt;/b&gt;" style="text;html=1;align=center;verticalAlign=middle;resizable=0;points=[];autosize=1;strokeColor=none;fillColor=none;" parent="1" vertex="1">
          <mxGeometry x="980" y="490" width="70" height="30" as="geometry" />
        </mxCell>
        <mxCell id="OKxPrB0xDgkwKKIO_z5v-69" value="dhcp" style="text;html=1;align=center;verticalAlign=middle;resizable=0;points=[];autosize=1;strokeColor=none;fillColor=none;" parent="1" vertex="1">
          <mxGeometry x="263" y="205" width="50" height="30" as="geometry" />
        </mxCell>
        <mxCell id="OKxPrB0xDgkwKKIO_z5v-71" value="&lt;b&gt;http&lt;/b&gt;" style="text;html=1;align=center;verticalAlign=middle;resizable=0;points=[];autosize=1;strokeColor=none;fillColor=none;" parent="1" vertex="1">
          <mxGeometry x="-33.5" y="-23.5" width="50" height="30" as="geometry" />
        </mxCell>
        <mxCell id="OKxPrB0xDgkwKKIO_z5v-75" value="办公区" style="text;html=1;align=center;verticalAlign=middle;resizable=0;points=[];autosize=1;strokeColor=none;fillColor=none;" parent="1" vertex="1">
          <mxGeometry x="137.5" y="550" width="60" height="30" as="geometry" />
        </mxCell>
        <mxCell id="OKxPrB0xDgkwKKIO_z5v-76" value="教学楼&lt;div&gt;宿舍楼&lt;/div&gt;" style="text;html=1;align=center;verticalAlign=middle;resizable=0;points=[];autosize=1;strokeColor=none;fillColor=none;" parent="1" vertex="1">
          <mxGeometry x="635.5" y="550" width="60" height="40" as="geometry" />
        </mxCell>
        <mxCell id="OKxPrB0xDgkwKKIO_z5v-80" value="&lt;div&gt;VLANIF 2&lt;/div&gt;10.64.0.1/10" style="text;html=1;align=center;verticalAlign=middle;resizable=0;points=[];autosize=1;strokeColor=none;fillColor=none;" parent="1" vertex="1">
          <mxGeometry x="27.5" y="3.5" width="90" height="40" as="geometry" />
        </mxCell>
        <mxCell id="OKxPrB0xDgkwKKIO_z5v-84" value="模拟ISP提供的IP&lt;div&gt;192.168.137.100&lt;/div&gt;" style="text;html=1;align=center;verticalAlign=middle;resizable=0;points=[];autosize=1;strokeColor=none;fillColor=none;" parent="1" vertex="1">
          <mxGeometry x="490.5" y="3.5" width="110" height="40" as="geometry" />
        </mxCell>
        <mxCell id="OKxPrB0xDgkwKKIO_z5v-85" value="VRRP" style="text;html=1;align=center;verticalAlign=middle;resizable=0;points=[];autosize=1;strokeColor=none;fillColor=none;" parent="1" vertex="1">
          <mxGeometry x="636.5" y="205" width="60" height="30" as="geometry" />
        </mxCell>
        <mxCell id="OKxPrB0xDgkwKKIO_z5v-88" style="rounded=0;orthogonalLoop=1;jettySize=auto;html=1;exitX=1;exitY=0.5;exitDx=0;exitDy=0;exitPerimeter=0;entryX=0;entryY=0.5;entryDx=0;entryDy=0;entryPerimeter=0;endArrow=none;endFill=0;" parent="1" source="OKxPrB0xDgkwKKIO_z5v-6" target="OKxPrB0xDgkwKKIO_z5v-15" edge="1">
          <mxGeometry relative="1" as="geometry">
            <mxPoint x="-25.5" y="-5" as="sourcePoint" />
          </mxGeometry>
        </mxCell>
        <mxCell id="OKxPrB0xDgkwKKIO_z5v-96" value="dhcp" style="text;html=1;align=center;verticalAlign=middle;resizable=0;points=[];autosize=1;strokeColor=none;fillColor=none;" parent="1" vertex="1">
          <mxGeometry x="508" y="205" width="50" height="30" as="geometry" />
        </mxCell>
        <mxCell id="OKxPrB0xDgkwKKIO_z5v-101" style="rounded=0;orthogonalLoop=1;jettySize=auto;html=1;exitX=0.5;exitY=0;exitDx=0;exitDy=0;exitPerimeter=0;endArrow=none;endFill=0;" parent="1" source="OKxPrB0xDgkwKKIO_z5v-100" target="OKxPrB0xDgkwKKIO_z5v-26" edge="1">
          <mxGeometry relative="1" as="geometry" />
        </mxCell>
        <mxCell id="OKxPrB0xDgkwKKIO_z5v-100" value="&lt;div&gt;&lt;b&gt;PC5&lt;/b&gt;&lt;/div&gt;&lt;div&gt;&lt;b&gt;后勤&lt;/b&gt;&lt;/div&gt;&lt;div&gt;&lt;span style=&quot;background-color: initial;&quot;&gt;&lt;b&gt;VLAN 23&lt;/b&gt;&lt;/span&gt;&lt;/div&gt;" style="shape=mxgraph.cisco.computers_and_peripherals.workstation;sketch=0;html=1;pointerEvents=1;dashed=0;fillColor=#036897;strokeColor=#ffffff;strokeWidth=2;verticalLabelPosition=bottom;verticalAlign=top;align=center;outlineConnect=0;" parent="1" vertex="1">
          <mxGeometry x="260.5" y="700" width="83" height="62" as="geometry" />
        </mxCell>
        <mxCell id="OKxPrB0xDgkwKKIO_z5v-102" value="&lt;div&gt;Eth0&lt;/div&gt;GE0/1&lt;div&gt;10.128.0.3/16&lt;/div&gt;" style="text;html=1;align=center;verticalAlign=middle;resizable=0;points=[];autosize=1;strokeColor=none;fillColor=none;" parent="1" vertex="1">
          <mxGeometry x="235.5" y="148.5" width="100" height="60" as="geometry" />
        </mxCell>
        <mxCell id="OKxPrB0xDgkwKKIO_z5v-103" value="&lt;div&gt;Eth0&lt;/div&gt;GE0/1&lt;div&gt;10.128.0.4/16&lt;/div&gt;" style="text;html=1;align=center;verticalAlign=middle;resizable=0;points=[];autosize=1;strokeColor=none;fillColor=none;" parent="1" vertex="1">
          <mxGeometry x="477" y="145" width="100" height="60" as="geometry" />
        </mxCell>
        <mxCell id="OKxPrB0xDgkwKKIO_z5v-105" value="&lt;div&gt;Eth1&lt;/div&gt;GE4/5" style="text;html=1;align=center;verticalAlign=middle;resizable=0;points=[];autosize=1;strokeColor=none;fillColor=none;" parent="1" vertex="1">
          <mxGeometry x="155" y="266.5" width="60" height="40" as="geometry" />
        </mxCell>
        <mxCell id="OKxPrB0xDgkwKKIO_z5v-106" value="Eth2&lt;div&gt;GE6/7&lt;/div&gt;" style="text;html=1;align=center;verticalAlign=middle;resizable=0;points=[];autosize=1;strokeColor=none;fillColor=none;" parent="1" vertex="1">
          <mxGeometry x="592" y="266.5" width="60" height="40" as="geometry" />
        </mxCell>
        <mxCell id="OKxPrB0xDgkwKKIO_z5v-107" value="&lt;div&gt;Eth2&lt;/div&gt;GE6/7" style="text;html=1;align=center;verticalAlign=middle;resizable=0;points=[];autosize=1;strokeColor=none;fillColor=none;" parent="1" vertex="1">
          <mxGeometry x="286" y="235" width="60" height="40" as="geometry" />
        </mxCell>
        <mxCell id="OKxPrB0xDgkwKKIO_z5v-108" value="Eth1&lt;div&gt;GE4/5&lt;/div&gt;" style="text;html=1;align=center;verticalAlign=middle;resizable=0;points=[];autosize=1;strokeColor=none;fillColor=none;" parent="1" vertex="1">
          <mxGeometry x="475" y="230" width="60" height="40" as="geometry" />
        </mxCell>
        <mxCell id="OKxPrB0xDgkwKKIO_z5v-112" value="&lt;div&gt;Eth3&lt;/div&gt;GE0/1&lt;div&gt;VLANIF 4&lt;/div&gt;" style="text;html=1;align=center;verticalAlign=middle;resizable=0;points=[];autosize=1;strokeColor=none;fillColor=none;" parent="1" vertex="1">
          <mxGeometry x="245.5" y="48.5" width="80" height="60" as="geometry" />
        </mxCell>
        <mxCell id="OKxPrB0xDgkwKKIO_z5v-113" value="&lt;div&gt;Eth4&lt;/div&gt;GE2/3&lt;div&gt;VLANIF 4&lt;/div&gt;" style="text;html=1;align=center;verticalAlign=middle;resizable=0;points=[];autosize=1;strokeColor=none;fillColor=none;" parent="1" vertex="1">
          <mxGeometry x="487" y="48.5" width="80" height="60" as="geometry" />
        </mxCell>
        <mxCell id="OKxPrB0xDgkwKKIO_z5v-114" value="&lt;div&gt;Eth2&lt;/div&gt;GE4/5&lt;div&gt;10.129.0.1/16&lt;/div&gt;" style="text;html=1;align=center;verticalAlign=middle;resizable=0;points=[];autosize=1;strokeColor=none;fillColor=none;" parent="1" vertex="1">
          <mxGeometry x="279.5" y="-16.5" width="100" height="60" as="geometry" />
        </mxCell>
        <mxCell id="OKxPrB0xDgkwKKIO_z5v-115" value="&lt;div&gt;Eth1&lt;/div&gt;GE6/7" style="text;html=1;align=center;verticalAlign=middle;resizable=0;points=[];autosize=1;strokeColor=none;fillColor=none;" parent="1" vertex="1">
          <mxGeometry x="427" y="3.5" width="60" height="40" as="geometry" />
        </mxCell>
        <mxCell id="8mNXo8YSzwnF-AT6geSr-1" value="VRRP VRID 1/2&lt;div&gt;10.128.1.(1/2)&lt;/div&gt;" style="text;html=1;align=center;verticalAlign=middle;resizable=0;points=[];autosize=1;strokeColor=none;fillColor=none;" parent="1" vertex="1">
          <mxGeometry x="747" y="158.5" width="110" height="40" as="geometry" />
        </mxCell>
        <mxCell id="8mNXo8YSzwnF-AT6geSr-3" value="VRRP VRID 3/4&lt;div&gt;10.0.1.(1/2)&lt;/div&gt;" style="text;html=1;align=center;verticalAlign=middle;resizable=0;points=[];autosize=1;strokeColor=none;fillColor=none;" parent="1" vertex="1">
          <mxGeometry x="747" y="251.5" width="110" height="40" as="geometry" />
        </mxCell>
        <mxCell id="8mNXo8YSzwnF-AT6geSr-5" value="VLANIF 2&lt;div&gt;VLAN 11-18&lt;/div&gt;&lt;div&gt;10.0.0.1/10&lt;/div&gt;" style="text;html=1;align=center;verticalAlign=middle;resizable=0;points=[];autosize=1;strokeColor=none;fillColor=none;" parent="1" vertex="1">
          <mxGeometry x="70" y="240" width="90" height="60" as="geometry" />
        </mxCell>
        <mxCell id="8mNXo8YSzwnF-AT6geSr-6" value="VLANIF 2&lt;div&gt;VLAN 11-18&lt;/div&gt;&lt;div&gt;10.0.0.2/10&lt;/div&gt;" style="text;html=1;align=center;verticalAlign=middle;resizable=0;points=[];autosize=1;strokeColor=none;fillColor=none;" parent="1" vertex="1">
          <mxGeometry x="652" y="240" width="90" height="60" as="geometry" />
        </mxCell>
        <mxCell id="c4X52kRVc_AipKpNaiow-1" value="VRRP VRID 5/6&lt;div&gt;10.192.1.(1/2)&lt;/div&gt;" style="text;html=1;align=center;verticalAlign=middle;resizable=0;points=[];autosize=1;strokeColor=none;fillColor=none;" parent="1" vertex="1">
          <mxGeometry x="747" y="310" width="110" height="40" as="geometry" />
        </mxCell>
        <mxCell id="c4X52kRVc_AipKpNaiow-2" value="VLANIF 3&lt;div&gt;VLAN 21-28&lt;/div&gt;&lt;div&gt;10.192.0.1/10&lt;/div&gt;" style="text;html=1;align=center;verticalAlign=middle;resizable=0;points=[];autosize=1;strokeColor=none;fillColor=none;" parent="1" vertex="1">
          <mxGeometry x="60" y="300" width="100" height="60" as="geometry" />
        </mxCell>
        <mxCell id="c4X52kRVc_AipKpNaiow-4" value="VLANIF 3&lt;div&gt;VLAN 21-28&lt;/div&gt;&lt;div&gt;10.192.0.2/10&lt;/div&gt;" style="text;html=1;align=center;verticalAlign=middle;resizable=0;points=[];autosize=1;strokeColor=none;fillColor=none;" parent="1" vertex="1">
          <mxGeometry x="647" y="300" width="100" height="60" as="geometry" />
        </mxCell>
        <mxCell id="c4X52kRVc_AipKpNaiow-6" value="&lt;b&gt;中继设备&lt;/b&gt;&lt;div&gt;&lt;b&gt;（处理链路聚合）&lt;/b&gt;&lt;/div&gt;" style="text;html=1;align=center;verticalAlign=middle;resizable=0;points=[];autosize=1;strokeColor=none;fillColor=none;" parent="1" vertex="1">
          <mxGeometry x="615.5" y="-27.5" width="120" height="40" as="geometry" />
        </mxCell>
        <mxCell id="WaT7aZ4GV9jZIhNz12hq-1" value="&lt;div&gt;&lt;b&gt;模拟公网网关&lt;/b&gt;&lt;/div&gt;&lt;b&gt;192.168.137.1&lt;/b&gt;" style="shape=mxgraph.cisco.servers.fileserver;sketch=0;html=1;pointerEvents=1;dashed=0;fillColor=#036897;strokeColor=#ffffff;strokeWidth=2;verticalLabelPosition=bottom;verticalAlign=top;align=center;outlineConnect=0;" vertex="1" parent="1">
          <mxGeometry x="810.5" y="12.5" width="43" height="62" as="geometry" />
        </mxCell>
        <mxCell id="WaT7aZ4GV9jZIhNz12hq-3" value="&lt;b&gt;网络共享&lt;/b&gt;&lt;div&gt;&lt;b&gt;NAT-Test&lt;/b&gt;&lt;/div&gt;" style="text;html=1;align=center;verticalAlign=middle;resizable=0;points=[];autosize=1;strokeColor=none;fillColor=none;" vertex="1" parent="1">
          <mxGeometry x="797" y="-28.5" width="70" height="40" as="geometry" />
        </mxCell>
        <mxCell id="WaT7aZ4GV9jZIhNz12hq-6" value="VLANIF 4&lt;div&gt;10.128.0.1/16&lt;/div&gt;&lt;div&gt;10.128.0.2/16&lt;/div&gt;" style="text;html=1;align=center;verticalAlign=middle;resizable=0;points=[];autosize=1;strokeColor=none;fillColor=none;" vertex="1" parent="1">
          <mxGeometry x="352" y="106.5" width="100" height="60" as="geometry" />
        </mxCell>
        <mxCell id="sXXriGGngjyK85Kr_pVM-3" value="&lt;b&gt;&lt;font style=&quot;font-size: 14px;&quot;&gt;防火墙&lt;/font&gt;&lt;/b&gt;" style="text;html=1;align=center;verticalAlign=middle;resizable=0;points=[];autosize=1;strokeColor=none;fillColor=none;" vertex="1" parent="1">
          <mxGeometry x="550" y="-40" width="70" height="30" as="geometry" />
        </mxCell>
        <mxCell id="sXXriGGngjyK85Kr_pVM-5" value="&lt;b&gt;&lt;font style=&quot;font-size: 14px;&quot;&gt;用户层&lt;/font&gt;&lt;/b&gt;" style="text;html=1;align=center;verticalAlign=middle;resizable=0;points=[];autosize=1;strokeColor=none;fillColor=none;" vertex="1" parent="1">
          <mxGeometry x="980" y="632" width="70" height="30" as="geometry" />
        </mxCell>
        <mxCell id="sXXriGGngjyK85Kr_pVM-6" value="&lt;b&gt;&lt;font style=&quot;font-size: 17px;&quot;&gt;trust&lt;/font&gt;&lt;/b&gt;" style="text;html=1;align=center;verticalAlign=middle;resizable=0;points=[];autosize=1;strokeColor=none;fillColor=none;" vertex="1" parent="1">
          <mxGeometry x="-60" y="110" width="60" height="30" as="geometry" />
        </mxCell>
        <mxCell id="WaT7aZ4GV9jZIhNz12hq-8" value="2区" style="text;html=1;align=center;verticalAlign=middle;resizable=0;points=[];autosize=1;strokeColor=none;fillColor=none;fontFamily=Helvetica;fontSize=12;fontColor=default;" vertex="1" parent="1">
          <mxGeometry x="-61.5" y="632" width="40" height="30" as="geometry" />
        </mxCell>
        <mxCell id="WaT7aZ4GV9jZIhNz12hq-9" value="1区" style="text;html=1;align=center;verticalAlign=middle;resizable=0;points=[];autosize=1;strokeColor=none;fillColor=none;" vertex="1" parent="1">
          <mxGeometry x="430" y="632" width="40" height="30" as="geometry" />
        </mxCell>
        <mxCell id="WaT7aZ4GV9jZIhNz12hq-10" value="1区各VLAN间不能互相访问" style="text;html=1;align=center;verticalAlign=middle;resizable=0;points=[];autosize=1;strokeColor=none;fillColor=none;" vertex="1" parent="1">
          <mxGeometry x="760" y="715" width="170" height="30" as="geometry" />
        </mxCell>
        <mxCell id="WaT7aZ4GV9jZIhNz12hq-11" value="&lt;div&gt;Eth1&lt;/div&gt;GE1/2" style="text;html=1;align=center;verticalAlign=middle;resizable=0;points=[];autosize=1;strokeColor=none;fillColor=none;" vertex="1" parent="1">
          <mxGeometry x="135.5" y="360" width="60" height="40" as="geometry" />
        </mxCell>
        <mxCell id="WaT7aZ4GV9jZIhNz12hq-12" value="&lt;div&gt;Eth2&lt;/div&gt;GE3/4" style="text;html=1;align=center;verticalAlign=middle;resizable=0;points=[];autosize=1;strokeColor=none;fillColor=none;" vertex="1" parent="1">
          <mxGeometry x="286" y="360" width="60" height="40" as="geometry" />
        </mxCell>
        <mxCell id="WaT7aZ4GV9jZIhNz12hq-13" value="&lt;div&gt;Eth3&lt;/div&gt;GE5/6" style="text;html=1;align=center;verticalAlign=middle;resizable=0;points=[];autosize=1;strokeColor=none;fillColor=none;" vertex="1" parent="1">
          <mxGeometry x="137.5" y="450" width="60" height="40" as="geometry" />
        </mxCell>
        <mxCell id="WaT7aZ4GV9jZIhNz12hq-14" value="&lt;div&gt;Eth4&lt;/div&gt;GE7/8" style="text;html=1;align=center;verticalAlign=middle;resizable=0;points=[];autosize=1;strokeColor=none;fillColor=none;" vertex="1" parent="1">
          <mxGeometry x="251" y="450" width="60" height="40" as="geometry" />
        </mxCell>
        <mxCell id="WaT7aZ4GV9jZIhNz12hq-15" value="&lt;div&gt;Eth1&lt;/div&gt;GE1/2" style="text;html=1;align=center;verticalAlign=middle;resizable=0;points=[];autosize=1;strokeColor=none;fillColor=none;" vertex="1" parent="1">
          <mxGeometry x="475" y="360" width="60" height="40" as="geometry" />
        </mxCell>
        <mxCell id="WaT7aZ4GV9jZIhNz12hq-16" value="&lt;div&gt;Eth2&lt;/div&gt;GE3/4" style="text;html=1;align=center;verticalAlign=middle;resizable=0;points=[];autosize=1;strokeColor=none;fillColor=none;" vertex="1" parent="1">
          <mxGeometry x="624" y="360" width="60" height="40" as="geometry" />
        </mxCell>
        <mxCell id="WaT7aZ4GV9jZIhNz12hq-17" value="&lt;div&gt;Eth3&lt;/div&gt;GE5/6" style="text;html=1;align=center;verticalAlign=middle;resizable=0;points=[];autosize=1;strokeColor=none;fillColor=none;" vertex="1" parent="1">
          <mxGeometry x="503" y="450" width="60" height="40" as="geometry" />
        </mxCell>
        <mxCell id="WaT7aZ4GV9jZIhNz12hq-18" value="&lt;div&gt;Eth4&lt;/div&gt;GE7/8" style="text;html=1;align=center;verticalAlign=middle;resizable=0;points=[];autosize=1;strokeColor=none;fillColor=none;" vertex="1" parent="1">
          <mxGeometry x="624" y="450" width="60" height="40" as="geometry" />
        </mxCell>
        <mxCell id="WaT7aZ4GV9jZIhNz12hq-19" value="&lt;div&gt;Eth1&lt;/div&gt;GE1/2" style="text;html=1;align=center;verticalAlign=middle;resizable=0;points=[];autosize=1;strokeColor=none;fillColor=none;" vertex="1" parent="1">
          <mxGeometry x="137.5" y="490" width="60" height="40" as="geometry" />
        </mxCell>
        <mxCell id="WaT7aZ4GV9jZIhNz12hq-20" value="&lt;div&gt;Eth2&lt;/div&gt;GE3/4" style="text;html=1;align=center;verticalAlign=middle;resizable=0;points=[];autosize=1;strokeColor=none;fillColor=none;" vertex="1" parent="1">
          <mxGeometry x="251" y="490" width="60" height="40" as="geometry" />
        </mxCell>
        <mxCell id="WaT7aZ4GV9jZIhNz12hq-21" value="&lt;div&gt;Eth1&lt;/div&gt;GE1/2" style="text;html=1;align=center;verticalAlign=middle;resizable=0;points=[];autosize=1;strokeColor=none;fillColor=none;" vertex="1" parent="1">
          <mxGeometry x="503" y="490" width="60" height="40" as="geometry" />
        </mxCell>
        <mxCell id="WaT7aZ4GV9jZIhNz12hq-22" value="&lt;div&gt;Eth2&lt;/div&gt;GE3/4" style="text;html=1;align=center;verticalAlign=middle;resizable=0;points=[];autosize=1;strokeColor=none;fillColor=none;" vertex="1" parent="1">
          <mxGeometry x="624" y="490" width="60" height="40" as="geometry" />
        </mxCell>
        <mxCell id="WaT7aZ4GV9jZIhNz12hq-23" value="GE9-11" style="text;html=1;align=center;verticalAlign=middle;resizable=0;points=[];autosize=1;strokeColor=none;fillColor=none;" vertex="1" parent="1">
          <mxGeometry x="263" y="602" width="60" height="30" as="geometry" />
        </mxCell>
        <mxCell id="WaT7aZ4GV9jZIhNz12hq-24" value="GE9-10" style="text;html=1;align=center;verticalAlign=middle;resizable=0;points=[];autosize=1;strokeColor=none;fillColor=none;" vertex="1" parent="1">
          <mxGeometry x="502" y="602" width="60" height="30" as="geometry" />
        </mxCell>
        <mxCell id="WaT7aZ4GV9jZIhNz12hq-25" value="&lt;div&gt;Eth0&lt;/div&gt;GE0/1" style="text;html=1;align=center;verticalAlign=middle;resizable=0;points=[];autosize=1;strokeColor=none;fillColor=none;" vertex="1" parent="1">
          <mxGeometry x="126.5" y="-23" width="60" height="40" as="geometry" />
        </mxCell>
      </root>
    </mxGraphModel>
  </diagram>
</mxfile>
